:SAMPLES-PER-SECOND 30
:FULLY-SPECIFIED
:DEGREES
178
root  -62.0513 31.8066 -54.3726 4.86877 18.8328 -1.19118
RightUpLeg  -29.8782 -25.0251 -6.41738
RightLeg  35.8955 8.98001 5.60329
RightFoot  3.01185 -0.00248443 0.471943
RightToes  -47.298 -0.279248 -0.352529
Spine  6.44772 -2.3744 -0.260143
Spine1  12.3178 -5.20088 -0.367771
HEad  9.53671 26.2428 -4.50368
LeftShoulder1  0 -2.42657e-020 -4.95415e-022
LeftArm  -22.0487 2.13177 -93.7131
LeftForeArm  46.1724 -24.4487 -4.57178
LeftHand  -0.0835187 -7.26021 0.947348
RightShoulder  0 2.42657e-020 1.07489e-018
RightArm  -43.1294 -11.0684 74.2271
RightForeArm  62.1522 14.2953 2.52273
RightHand  0.503689 23.3776 2.80502
LeftUpLeg  -16.6981 -27.5433 16.6461
LeftLeg  44.8366 5.40571 4.70097
LeftFoot  -11.3755 -0.163248 -1.63898
LeftToes  10.2526 9.37529e-007 1.1992e-007
179
root  -63.1099 32.1419 -54.0988 5.02295 22.6166 -2.06151
RightUpLeg  -28.7227 -26.6925 -3.89418
RightLeg  34.3352 7.13423 4.19712
RightFoot  2.39276 0.00291874 0.237719
RightToes  -44.8025 -0.257939 -0.340612
Spine  6.09464 -1.61396 0.515813
Spine1  11.3894 -3.81435 1.22494
HEad  12.137 22.0897 -3.3883
LeftShoulder1  0 -2.42657e-020 -4.95415e-022
LeftArm  -28.3106 1.74856 -95.1443
LeftForeArm  48.3707 -19.7887 -3.60856
LeftHand  0.0602006 -7.14964 -1.33484
RightShoulder  0 2.42657e-020 1.07489e-018
RightArm  -49.8361 -10.288 71.7804
RightForeArm  70.2729 12.0728 2.09042
RightHand  0.241065 22.9789 1.55638
LeftUpLeg  -19.4832 -22.2222 15.5487
LeftLeg  48.0145 8.33354 8.05258
LeftFoot  -12.5567 -0.311032 -2.82653
LeftToes  7.75873 9.37529e-007 1.1992e-007
180
root  -63.9596 32.5995 -53.8152 5.25104 25.5281 -1.51418
RightUpLeg  -26.5808 -27.4794 -3.14014
RightLeg  31.3902 5.24738 2.74019
RightFoot  2.43592 0.00487631 0.148148
RightToes  -42.3574 -0.237584 -0.328048
Spine  5.83874 -0.925309 0.614847
Spine1  10.9561 -2.32109 1.28633
HEad  13.6503 19.2354 -2.58276
LeftShoulder1  0 -2.42657e-020 -4.95415e-022
LeftArm  -33.2805 3.02285 -94.6371
LeftForeArm  50.2424 -18.1975 -3.29164
LeftHand  0.182283 -7.2576 -3.2467
RightShoulder  0 2.42657e-020 1.07489e-018
RightArm  -49.4163 -10.2208 69.963
RightForeArm  71.9352 11.7757 2.03146
RightHand  -0.369424 22.6449 -1.47527
LeftUpLeg  -19.6394 -16.2459 11.181
LeftLeg  48.1786 8.31008 8.07588
LeftFoot  -12.0505 -0.284299 -2.69302
LeftToes  6.46668 9.37529e-007 1.1992e-007
181
root  -64.748 33.0285 -53.6013 5.46796 28.6109 -1.03673
RightUpLeg  -24.2361 -27.2083 -2.53667
RightLeg  27.9336 2.32156 1.03865
RightFoot  2.80333 0.00849043 0.0305492
RightToes  -39.4065 -0.213759 -0.311745
Spine  5.62217 -0.630875 0.610546
Spine1  10.7141 -1.52285 0.990732
HEad  14.0687 17.625 -1.84945
LeftShoulder1  0 -2.42657e-020 -4.95415e-022
LeftArm  -34.131 5.34343 -92.7145
LeftForeArm  49.054 -18.6186 -3.37609
LeftHand  0.20407 -7.59285 -3.44767
RightShoulder  0 2.42657e-020 1.07489e-018
RightArm  -46.0303 -10.2449 68.8633
RightForeArm  68.7911 12.8445 2.23649
RightHand  -1.18044 22.4183 -5.58305
LeftUpLeg  -19.0502 -9.90264 6.39215
LeftLeg  47.1194 7.37061 6.91939
LeftFoot  -10.9833 -0.204226 -2.12398
LeftToes  2.3627 9.37529e-007 1.1992e-007
182
root  -65.4635 33.3759 -53.3281 5.39697 31.3806 -0.813461
RightUpLeg  -21.701 -26.5863 -1.83102
RightLeg  24.5054 -0.722911 -0.278925
RightFoot  3.08128 0.0145171 -0.124365
RightToes  -35.7296 -0.1853 -0.289751
Spine  5.43619 -0.496286 0.654194
Spine1  10.516 -1.07618 0.830484
HEad  14.1948 16.6267 -1.52253
LeftShoulder1  0 -2.42657e-020 -4.95415e-022
LeftArm  -32.9144 8.26855 -90.2207
LeftForeArm  47.4531 -19.9533 -3.64288
LeftHand  0.229081 -7.77644 -3.7428
RightShoulder  0 2.42657e-020 1.07489e-018
RightArm  -39.9791 -11.0191 67.9066
RightForeArm  58.526 16.0525 2.86285
RightHand  -1.47373 21.3717 -7.43059
LeftUpLeg  -17.2274 -1.75908 1.94695
LeftLeg  45.0262 6.68637 5.84332
LeftFoot  -9.862 -0.142359 -1.64995
LeftToes  -2.60039 9.37529e-007 1.1992e-007
183
root  -66.0993 33.6235 -53.0412 5.0238 34.3662 -0.773239
RightUpLeg  -19.3548 -27.471 -1.10565
RightLeg  21.7725 -2.65809 -0.869881
RightFoot  3.31706 0.0176779 -0.232927
RightToes  -33.1216 -0.165997 -0.273066
Spine  5.32423 -0.588677 0.728798
Spine1  10.4056 -1.1481 0.831665
HEad  14.315 15.8346 -1.11848
LeftShoulder1  0 -2.42657e-020 -4.95415e-022
LeftArm  -32.0438 11.3205 -87.8121
LeftForeArm  47.2286 -22.6336 -4.18836
LeftHand  0.231663 -8.15191 -3.62315
RightShoulder  0 2.42657e-020 1.07489e-018
RightArm  -35.765 -11.8885 67.1095
RightForeArm  47.5364 20.2726 3.70818
RightHand  -1.2827 20.8796 -6.58538
LeftUpLeg  -14.4871 6.0279 -1.67842
LeftLeg  42.2685 7.45046 5.90135
LeftFoot  -8.21245 -0.103567 -1.44256
LeftToes  -8.94233 9.37529e-007 1.1992e-007
184
root  -66.7436 33.7685 -52.7758 4.59033 37.6839 -1.29427
RightUpLeg  -17.7172 -28.9032 0.278653
RightLeg  19.5323 -4.482 -1.2714
RightFoot  3.25303 0.0198141 -0.320161
RightToes  -30.4517 -0.147044 -0.255093
Spine  5.08452 -0.899081 0.884827
Spine1  9.99101 -1.76202 1.17473
HEad  14.848 15.053 -0.434804
LeftShoulder1  0 -2.42657e-020 -4.95415e-022
LeftArm  -32.1875 13.8904 -85.9462
LeftForeArm  47.7654 -25.0788 -4.70439
LeftHand  0.159396 -8.03155 -2.64242
RightShoulder  0 2.42657e-020 1.07489e-018
RightArm  -33.4644 -12.7089 66.6007
RightForeArm  39.4301 24.5763 4.61036
RightHand  -0.949496 20.3665 -4.91384
LeftUpLeg  -11.7453 13.2116 -3.61056
LeftLeg  39.1054 8.01688 5.66006
LeftFoot  -7.47468 -0.0869357 -1.33084
LeftToes  -10.3575 9.37529e-007 1.1992e-007
185
root  -67.4282 33.8486 -52.5125 3.99646 41.5264 -2.47795
RightUpLeg  -16.662 -31.4181 2.38757
RightLeg  17.4464 -5.66199 -1.38365
RightFoot  3.0359 0.0186767 -0.350334
RightToes  -28.2013 -0.131733 -0.239272
Spine  4.68467 -1.41909 1.12731
Spine1  9.23753 -2.8322 1.73179
HEad  15.5317 14.0843 0.740909
LeftShoulder1  0 -2.42657e-020 -4.95415e-022
LeftArm  -33.5854 15.4949 -84.5443
LeftForeArm  48.5351 -25.893 -4.87991
LeftHand  0.130598 -8.02543 -2.23342
RightShoulder  0 2.42657e-020 1.07489e-018
RightArm  -32.2663 -14.0218 66.8125
RightForeArm  35.2938 29.9001 5.81032
RightHand  -0.791332 20.3435 -4.03966
LeftUpLeg  -8.85309 19.7602 -3.92611
LeftLeg  34.6719 7.2361 4.32203
LeftFoot  -7.24779 -0.0694267 -1.09619
LeftToes  -13.0858 9.37529e-007 1.1992e-007
186
root  -68.1359 33.8547 -52.2478 3.33801 45.5276 -3.98238
RightUpLeg  -16.6602 -34.6177 4.95789
RightLeg  16.2706 -6.29069 -1.40031
RightFoot  2.51992 0.0140489 -0.321253
RightToes  -26.2184 -0.118767 -0.224843
Spine  4.33266 -1.91809 1.34558
Spine1  8.53967 -3.83703 2.14518
HEad  15.5883 12.7065 2.38212
LeftShoulder1  0 -2.42657e-020 -4.95415e-022
LeftArm  -34.7816 16.0045 -83.1949
LeftForeArm  48.8516 -25.9981 -4.90237
LeftHand  0.152253 -7.77781 -2.61171
RightShoulder  0 2.42657e-020 1.07489e-018
RightArm  -32.5543 -15.2442 68.1074
RightForeArm  34.4185 34.7233 7.01447
RightHand  -0.878943 20.6968 -4.442
LeftUpLeg  -5.91324 24.9677 -3.21467
LeftLeg  29.3449 4.43627 2.1248
LeftFoot  -5.9296 -0.0275617 -0.532168
LeftToes  -19.108 9.37529e-007 1.1992e-007
187
root  -68.8925 33.8013 -52.0141 2.31097 49.8789 -5.95992
RightUpLeg  -17.565 -36.9972 7.89409
RightLeg  15.9879 -8.00168 -1.73718
RightFoot  1.75687 0.0102011 -0.287638
RightToes  -23.7327 -0.10323 -0.206136
Spine  4.06875 -2.4713 1.49208
Spine1  8.00255 -4.94438 2.40385
HEad  15.04 11.0875 4.57048
LeftShoulder1  0 -2.42657e-020 -4.95415e-022
LeftArm  -35.0936 15.3316 -81.8505
LeftForeArm  48.9522 -25.3437 -4.75964
LeftHand  0.173527 -7.78662 -2.9219
RightShoulder  0 2.42657e-020 1.07489e-018
RightArm  -33.249 -16.116 70.2015
RightForeArm  34.1512 38.1529 7.9619
RightHand  -1.04165 20.7617 -5.31331
LeftUpLeg  -3.72501 26.5016 -2.05238
LeftLeg  24.5806 3.1271 1.19033
LeftFoot  -7.52056 -0.0304286 -0.462984
LeftToes  -15.1631 9.37529e-007 1.1992e-007
